{
  "source": "C:\\Users\\Peter\\Desktop\\stuff\\MIUN\\quantitative_research\\video_compression\\videos\\BVI-HD\\BVI-HD_CDVL_videos\\ORIG\\DiverFishAndRock_1920x1080_30fps.mp4",
  "output": "C:\\Users\\Peter\\Desktop\\stuff\\MIUN\\quantitative_research\\video_compression\\compressed_videos\\BVI-HD\\vp9\\3\\DiverFishAndRock_1920x1080_30fps_vp9.webm",
  "codec": "vp9",
  "ok": "Input #0, mov,mp4,m4a,3gp,3g2,mj2, from 'C:\\Users\\Peter\\Desktop\\stuff\\MIUN\\quantitative_research\\video_compression\\videos\\BVI-HD\\BVI-HD_CDVL_videos\\ORIG\\DiverFishAndRock_1920x1080_30fps.mp4':\n  Metadata:\n    major_brand     : isom\n    minor_version   : 512\n    compatible_brands: isomiso2avc1mp41\n    encoder         : Lavf54.28.101\n  Duration: 00:00:05.00, start: 0.000000, bitrate: 228854 kb/s\n  Stream #0:0[0x1](und): Video: h264 (High 4:4:4 Predictive) (avc1 / 0x31637661), yuv420p(progressive), 1920x1080, 228851 kb/s, 30 fps, 30 tbr, 30 tbn (default)\n    Metadata:\n      handler_name    : VideoHandler\n      vendor_id       : [0][0][0][0]\n[out#0/webm @ 000001f77f730bc0] Codec AVOption b:a (set bitrate (in bits/s)) has not been used for any stream. The most likely reason is either wrong type (e.g. a video option with no video streams) or that it is a private option of some decoder which was not actually used for any stream.\nStream mapping:\n  Stream #0:0 -> #0:0 (h264 (native) -> vp9 (libvpx-vp9))\nPress [q] to stop, [?] for help\n[libvpx-vp9 @ 000001f77f72c2c0] v1.15.2-100-g40561f514\nOutput #0, webm, to 'C:\\Users\\Peter\\Desktop\\stuff\\MIUN\\quantitative_research\\video_compression\\compressed_videos\\BVI-HD\\vp9\\3\\DiverFishAndRock_1920x1080_30fps_vp9.webm':\n  Metadata:\n    major_brand     : isom\n    minor_version   : 512\n    compatible_brands: isomiso2avc1mp41\n    encoder         : Lavf62.3.100\n  Stream #0:0(und): Video: vp9, yuv420p(tv, progressive), 1920x1080, q=2-31, 3000 kb/s, 30 fps, 1k tbn (default)\n    Metadata:\n      encoder         : Lavc62.11.100 libvpx-vp9\n      handler_name    : VideoHandler\n      vendor_id       : [0][0][0][0]\n    Side data:\n      cpb: bitrate max/min/avg: 0/0/0 buffer size: 3000000 vbv_delay: N/A\nframe=    0 fps=0.0 q=0.0 size=       0KiB time=N/A bitrate=N/A speed=N/A elapsed=0:00:00.53    \nframe=    4 fps=3.0 q=51.0 size=       1KiB time=00:00:00.13 bitrate=  38.0kbits/s speed=0.0994x elapsed=0:00:01.34    \nframe=    9 fps=4.8 q=45.0 size=       1KiB time=00:00:00.30 bitrate=  16.9kbits/s speed=0.159x elapsed=0:00:01.88    \nframe=   14 fps=5.8 q=43.0 size=       1KiB time=00:00:00.46 bitrate=  10.9kbits/s speed=0.193x elapsed=0:00:02.41    \nframe=   18 fps=6.1 q=42.0 size=       1KiB time=00:00:00.60 bitrate=   8.5kbits/s speed=0.202x elapsed=0:00:02.96    \nframe=   23 fps=6.6 q=41.0 size=       1KiB time=00:00:00.76 bitrate=   6.6kbits/s speed=0.22x elapsed=0:00:03.48    \nframe=   27 fps=6.7 q=42.0 size=       1KiB time=00:00:00.90 bitrate=   5.6kbits/s speed=0.223x elapsed=0:00:04.04    \nframe=   31 fps=6.8 q=25.0 size=       1KiB time=00:00:01.03 bitrate=   4.9kbits/s speed=0.226x elapsed=0:00:04.57    \nframe=   33 fps=6.4 q=42.0 size=       1KiB time=00:00:01.10 bitrate=   4.6kbits/s speed=0.213x elapsed=0:00:05.16    \nframe=   36 fps=6.3 q=42.0 size=       1KiB time=00:00:01.20 bitrate=   4.2kbits/s speed=0.209x elapsed=0:00:05.73    \nframe=   39 fps=6.2 q=42.0 size=       1KiB time=00:00:01.30 bitrate=   3.9kbits/s speed=0.205x elapsed=0:00:06.32    \nframe=   41 fps=6.0 q=27.0 size=       1KiB time=00:00:01.33 bitrate=   3.8kbits/s speed=0.194x elapsed=0:00:06.87    \nframe=   44 fps=5.9 q=40.0 size=       1KiB time=00:00:01.46 bitrate=   3.5kbits/s speed=0.197x elapsed=0:00:07.46    \nframe=   47 fps=5.9 q=41.0 size=       1KiB time=00:00:01.56 bitrate=   3.2kbits/s speed=0.196x elapsed=0:00:07.98    \nframe=   51 fps=6.0 q=25.0 size=       1KiB time=00:00:01.70 bitrate=   3.0kbits/s speed=0.199x elapsed=0:00:08.53    \nframe=   55 fps=6.0 q=40.0 size=       1KiB time=00:00:01.83 bitrate=   2.8kbits/s speed=0.202x elapsed=0:00:09.09    \nframe=   58 fps=6.0 q=39.0 size=       1KiB time=00:00:01.93 bitrate=   2.6kbits/s speed= 0.2x elapsed=0:00:09.65    \nframe=   60 fps=5.9 q=39.0 size=       1KiB time=00:00:02.00 bitrate=   2.5kbits/s speed=0.196x elapsed=0:00:10.18    \nframe=   65 fps=6.1 q=38.0 size=       1KiB time=00:00:02.13 bitrate=   2.4kbits/s speed=0.199x elapsed=0:00:10.70    \nframe=   68 fps=6.0 q=39.0 size=       1KiB time=00:00:02.26 bitrate=   2.2kbits/s speed=0.201x elapsed=0:00:11.26    \nframe=   70 fps=5.9 q=39.0 size=       1KiB time=00:00:02.33 bitrate=   2.2kbits/s speed=0.197x elapsed=0:00:11.83    \nframe=   73 fps=5.9 q=38.0 size=       1KiB time=00:00:02.43 bitrate=   2.1kbits/s speed=0.196x elapsed=0:00:12.39    \nframe=   77 fps=6.0 q=38.0 size=       1KiB time=00:00:02.56 bitrate=   2.0kbits/s speed=0.199x elapsed=0:00:12.92    \nframe=   80 fps=6.0 q=39.0 size=       1KiB time=00:00:02.66 bitrate=   1.9kbits/s speed=0.198x elapsed=0:00:13.43    \nframe=   85 fps=6.1 q=41.0 size=       1KiB time=00:00:02.80 bitrate=   1.8kbits/s speed= 0.2x elapsed=0:00:13.97    \nframe=   88 fps=6.1 q=41.0 size=       1KiB time=00:00:02.93 bitrate=   1.7kbits/s speed=0.202x elapsed=0:00:14.53    \nframe=   90 fps=6.0 q=41.0 size=       1KiB time=00:00:03.00 bitrate=   1.7kbits/s speed=0.198x elapsed=0:00:15.12    \nframe=   94 fps=6.0 q=40.0 size=       1KiB time=00:00:03.13 bitrate=   1.6kbits/s speed= 0.2x elapsed=0:00:15.68    \nframe=   98 fps=6.0 q=41.0 size=       1KiB time=00:00:03.26 bitrate=   1.6kbits/s speed=0.201x elapsed=0:00:16.22    \nframe=  102 fps=6.1 q=42.0 size=       1KiB time=00:00:03.40 bitrate=   1.5kbits/s speed=0.203x elapsed=0:00:16.76    \nframe=  106 fps=6.1 q=43.0 size=       1KiB time=00:00:03.53 bitrate=   1.4kbits/s speed=0.204x elapsed=0:00:17.28    \nframe=  109 fps=6.1 q=43.0 size=       1KiB time=00:00:03.63 bitrate=   1.4kbits/s speed=0.204x elapsed=0:00:17.83    \nframe=  112 fps=6.1 q=43.0 size=       1KiB time=00:00:03.73 bitrate=   1.4kbits/s speed=0.203x elapsed=0:00:18.40    \nframe=  116 fps=6.1 q=43.0 size=       1KiB time=00:00:03.86 bitrate=   1.3kbits/s speed=0.203x elapsed=0:00:19.00    \nframe=  120 fps=6.1 q=43.0 size=       1KiB time=00:00:04.00 bitrate=   1.3kbits/s speed=0.204x elapsed=0:00:19.58    \nframe=  124 fps=6.2 q=40.0 size=       1KiB time=00:00:04.13 bitrate=   1.2kbits/s speed=0.205x elapsed=0:00:20.13    \nframe=  126 fps=6.1 q=40.0 size=       1KiB time=00:00:04.20 bitrate=   1.2kbits/s speed=0.203x elapsed=0:00:20.67    \nframe=  126 fps=5.9 q=40.0 size=       1KiB time=00:00:04.20 bitrate=   1.2kbits/s speed=0.197x elapsed=0:00:21.26    \nframe=  126 fps=5.8 q=40.0 size=       1KiB time=00:00:04.20 bitrate=   1.2kbits/s speed=0.192x elapsed=0:00:21.82    \nframe=  126 fps=5.6 q=40.0 size=       1KiB time=00:00:04.20 bitrate=   1.2kbits/s speed=0.188x elapsed=0:00:22.37    \nframe=  126 fps=5.5 q=40.0 size=       1KiB time=00:00:04.20 bitrate=   1.2kbits/s speed=0.183x elapsed=0:00:22.91    \nframe=  126 fps=5.4 q=40.0 size=       1KiB time=00:00:04.20 bitrate=   1.2kbits/s speed=0.179x elapsed=0:00:23.42    \nframe=  126 fps=5.3 q=40.0 size=       1KiB time=00:00:04.20 bitrate=   1.2kbits/s speed=0.175x elapsed=0:00:23.97    \n[out#0/webm @ 000001f77f730bc0] video:1676KiB audio:0KiB subtitle:0KiB other streams:0KiB global headers:0KiB muxing overhead: 0.102637%\nframe=  150 fps=6.2 q=35.0 Lsize=    1678KiB time=00:00:05.00 bitrate=2749.6kbits/s speed=0.208x elapsed=0:00:24.07    \n",
  "seconds": 24.49848985671997,
  "probe_out": {}
}